name rise31.4854peak64.571fall78.6902.mot
datacolumns 19
datarows 15
range 9.87996400000000 9.90330900000000
endheader
time	ground_force1_vx	ground_force1_vy	ground_force1_vz	ground_force1_px	ground_force1_py	ground_force1_pz	ground_force2_vx	ground_force2_vy	ground_force2_vz	ground_force2_px	ground_force2_py	ground_force2_pz	ground_torque1_x	ground_torque1_y	ground_torque1_z	ground_torque2_x	ground_torque2_y	ground_torque2_z	
9.87996400000000	68.93864200000000	805.75645699999995	43.63231200000000	0.30903800000000	0.00000000000000	0.07546000000000	0.00000000000000	0.00000000000000	0.00000000000000	0.00000000000000	0.00000000000000	0.00000000000000	0.00000000000000	15.40366800000000	0.00000000000000	0.00000000000000	0.00000000000000	0.00000000000000	
9.88163300000000	67.98430900000000	805.57151499999998	43.74005900000000	0.30791400000000	0.00000000000000	0.07553900000000	0.00000000000000	0.00000000000000	0.00000000000000	0.00000000000000	0.00000000000000	0.00000000000000	0.00000000000000	15.46676700000000	0.00000000000000	0.00000000000000	0.00000000000000	0.00000000000000	
9.88330600000000	67.03250199999999	805.23361199999999	43.84632900000000	0.30680300000000	0.00000000000000	0.07561800000000	0.00000000000000	0.00000000000000	0.00000000000000	0.00000000000000	0.00000000000000	0.00000000000000	0.00000000000000	15.53130100000000	0.00000000000000	0.00000000000000	0.00000000000000	0.00000000000000	
9.88496700000000	66.08394199999999	804.74573499999997	43.95080500000000	0.30570500000000	0.00000000000000	0.07569800000000	0.00000000000000	0.00000000000000	0.00000000000000	0.00000000000000	0.00000000000000	0.00000000000000	0.00000000000000	15.59699700000000	0.00000000000000	0.00000000000000	0.00000000000000	0.00000000000000	
9.88662800000000	65.13928500000000	804.11104799999998	44.05312000000000	0.30461900000000	0.00000000000000	0.07577900000000	0.00000000000000	0.00000000000000	0.00000000000000	0.00000000000000	0.00000000000000	0.00000000000000	0.00000000000000	15.66355300000000	0.00000000000000	0.00000000000000	0.00000000000000	0.00000000000000	
9.88831000000000	64.19912300000000	803.33289700000000	44.15286100000000	0.30354400000000	0.00000000000000	0.07586200000000	0.00000000000000	0.00000000000000	0.00000000000000	0.00000000000000	0.00000000000000	0.00000000000000	0.00000000000000	15.73063700000000	0.00000000000000	0.00000000000000	0.00000000000000	0.00000000000000	
9.88996200000000	63.26398600000000	802.41480700000000	44.24957100000000	0.30247900000000	0.00000000000000	0.07594500000000	0.00000000000000	0.00000000000000	0.00000000000000	0.00000000000000	0.00000000000000	0.00000000000000	0.00000000000000	15.79789600000000	0.00000000000000	0.00000000000000	0.00000000000000	0.00000000000000	
9.89162700000000	62.33434600000000	801.36047499999995	44.34276300000000	0.30142300000000	0.00000000000000	0.07602900000000	0.00000000000000	0.00000000000000	0.00000000000000	0.00000000000000	0.00000000000000	0.00000000000000	0.00000000000000	15.86495300000000	0.00000000000000	0.00000000000000	0.00000000000000	0.00000000000000	
9.89331000000000	61.41062000000000	800.17377199999999	44.43191700000000	0.30037500000000	0.00000000000000	0.07611500000000	0.00000000000000	0.00000000000000	0.00000000000000	0.00000000000000	0.00000000000000	0.00000000000000	0.00000000000000	15.93141600000000	0.00000000000000	0.00000000000000	0.00000000000000	0.00000000000000	
9.89496200000000	60.49317500000000	798.85873500000002	44.51649300000000	0.29933200000000	0.00000000000000	0.07620100000000	0.00000000000000	0.00000000000000	0.00000000000000	0.00000000000000	0.00000000000000	0.00000000000000	0.00000000000000	15.99688100000000	0.00000000000000	0.00000000000000	0.00000000000000	0.00000000000000	
9.89663600000000	59.58232800000000	797.41956500000003	44.59593100000000	0.29829600000000	0.00000000000000	0.07628800000000	0.00000000000000	0.00000000000000	0.00000000000000	0.00000000000000	0.00000000000000	0.00000000000000	0.00000000000000	16.06093500000000	0.00000000000000	0.00000000000000	0.00000000000000	0.00000000000000	
9.89829300000000	58.67835200000000	795.86061800000004	44.66966200000000	0.29726300000000	0.00000000000000	0.07637600000000	0.00000000000000	0.00000000000000	0.00000000000000	0.00000000000000	0.00000000000000	0.00000000000000	0.00000000000000	16.12315900000000	0.00000000000000	0.00000000000000	0.00000000000000	0.00000000000000	
9.89996500000000	57.78148100000000	794.18640000000005	44.73711300000000	0.29623300000000	0.00000000000000	0.07646500000000	0.00000000000000	0.00000000000000	0.00000000000000	0.00000000000000	0.00000000000000	0.00000000000000	0.00000000000000	16.18313400000000	0.00000000000000	0.00000000000000	0.00000000000000	0.00000000000000	
9.90163100000000	56.89191000000000	792.40156100000002	44.79771000000000	0.29520500000000	0.00000000000000	0.07655500000000	0.00000000000000	0.00000000000000	0.00000000000000	0.00000000000000	0.00000000000000	0.00000000000000	0.00000000000000	16.24044100000000	0.00000000000000	0.00000000000000	0.00000000000000	0.00000000000000	
9.90330900000000	56.00980000000000	790.51088500000003	44.85088800000000	0.29417800000000	0.00000000000000	0.07664600000000	0.00000000000000	0.00000000000000	0.00000000000000	0.00000000000000	0.00000000000000	0.00000000000000	0.00000000000000	16.29467100000000	0.00000000000000	0.00000000000000	0.00000000000000	0.00000000000000	
